<svg width="120" height="20" viewBox="0 0 120 20" fill="none" xmlns="http://www.w3.org/2000/svg">
<path d="M3.768 13.288V8.992H8.04C9.528 8.992 10.44 9.616 10.44 11.008C10.44 12.304 9.528 13.288 7.992 13.288H3.768ZM7.776 2.824C9.336 2.824 9.984 3.328 9.984 4.552C9.984 5.68 9.288 6.28 7.968 6.28H3.768V2.824H7.776ZM7.728 16C11.736 16 13.68 14.152 13.68 11.248C13.68 8.968 12.6 7.888 11.256 7.384C12.36 6.928 13.2 5.776 13.2 4.408C13.2 1.744 11.52 0.0639992 8.4 0.0639992H0.552V16H7.728ZM18.5253 16V9.856C18.5253 7.96 19.4613 7 21.3813 7C21.6693 7 21.9573 7.024 22.2453 7.072V3.88H21.8372C20.5653 3.88 19.3653 4.024 18.3333 5.608V4.192H15.4053V16H18.5253ZM30.6823 11.512C30.6583 12.904 29.4583 14.08 27.8503 14.08C26.8663 14.08 26.3383 13.648 26.3383 12.76C26.3383 11.752 26.9143 11.248 28.6903 10.912C29.8423 10.696 30.3943 10.528 30.7063 10.216L30.6823 11.512ZM33.8263 16V8.536C33.8263 5.56 32.5303 3.88 28.7863 3.88C24.9943 3.88 23.6503 5.584 23.6023 8.032H26.5063C26.6503 6.976 27.2263 6.28 28.6423 6.28C29.8663 6.28 30.6343 6.736 30.6343 7.504C30.6343 8.32 30.2023 8.632 28.6423 8.848C25.4983 9.28 23.2183 9.664 23.2183 13.072C23.2183 14.992 24.4663 16.312 27.1543 16.312C28.7383 16.312 29.9863 15.76 30.7303 14.944C30.7543 15.304 30.8263 15.712 30.9223 16H33.8263ZM42.2006 16L46.4486 4.192H43.1606L40.6646 11.992L38.1926 4.192H34.7126L38.9366 16H42.2006ZM54.4791 11.512C54.4551 12.904 53.2551 14.08 51.6471 14.08C50.6631 14.08 50.1351 13.648 50.1351 12.76C50.1351 11.752 50.7111 11.248 52.4871 10.912C53.6391 10.696 54.1911 10.528 54.5031 10.216L54.4791 11.512ZM57.6231 16V8.536C57.6231 5.56 56.3271 3.88 52.5831 3.88C48.7911 3.88 47.4471 5.584 47.3991 8.032H50.3031C50.4471 6.976 51.0231 6.28 52.4391 6.28C53.6631 6.28 54.4311 6.736 54.4311 7.504C54.4311 8.32 53.9991 8.632 52.4391 8.848C49.2951 9.28 47.0151 9.664 47.0151 13.072C47.0151 14.992 48.2631 16.312 50.9511 16.312C52.5351 16.312 53.7831 15.76 54.5271 14.944C54.5511 15.304 54.6231 15.712 54.7191 16H57.6231ZM67.151 11.512C67.127 12.904 65.927 14.08 64.319 14.08C63.335 14.08 62.807 13.648 62.807 12.76C62.807 11.752 63.383 11.248 65.159 10.912C66.311 10.696 66.863 10.528 67.175 10.216L67.151 11.512ZM70.295 16V8.536C70.295 5.56 68.999 3.88 65.255 3.88C61.463 3.88 60.119 5.584 60.071 8.032H62.975C63.119 6.976 63.695 6.28 65.111 6.28C66.335 6.28 67.103 6.736 67.103 7.504C67.103 8.32 66.671 8.632 65.111 8.848C61.967 9.28 59.687 9.664 59.687 13.072C59.687 14.992 60.935 16.312 63.623 16.312C65.207 16.312 66.455 15.76 67.199 14.944C67.223 15.304 67.295 15.712 67.391 16H70.295Z" fill="white"/>
<path d="M83.6869 19.024V17.632H72.0469V19.024H83.6869ZM94.1558 9.976H90.0998L92.1398 3.64H92.1638L94.1558 9.976ZM99.7478 16L94.1318 0.0639992H90.2678L84.5798 16H88.1078L89.2358 12.712H95.1158L96.1238 16H99.7478ZM104.674 16V9.856C104.674 7.96 105.61 7 107.53 7C107.818 7 108.106 7.024 108.394 7.072V3.88H107.986C106.714 3.88 105.514 4.024 104.482 5.608V4.192H101.554V16H104.674ZM116.961 11.296C116.961 12.76 116.385 13.6 115.137 13.6C113.865 13.6 113.337 12.736 113.337 11.248V6.4H119.865V4.192H113.337V1H110.265V11.56C110.265 14.104 111.633 16.312 115.089 16.312C118.425 16.312 119.865 14.08 119.865 11.584V8.224H116.961V11.296Z" fill="#8500ED"/>
</svg>
